<?xml version="1.0" encoding="UTF-8"?>
<svg id="Layer_2" data-name="Layer 2" xmlns="http://www.w3.org/2000/svg" viewBox="0 0 407.66 425.89">
  <defs>
    <style>
      .cls-1 {
        fill: #3d4335;
      }
    </style>
  </defs>
  <g id="Layer_1-2" data-name="Layer 1">
    <path class="cls-1" d="M407.66,421.78H250.86c-10.1,0-20.1-.5-30.1-2.2-12.2-2.1-24.1-5.4-35.6-10.3-13.3-5.6-25.6-12.7-36.9-21.6-23-18.1-40.2-40.7-51.1-67.9-4-10-6.8-20.4-8.8-31.1-2.3-12.3-2.6-24.7-2.1-37.2,.4-9.5,2-18.8,4.2-28,2.7-11.5,6.7-22.6,12-33.1,10.2-20.2,23.8-37.7,41.1-52.2,16.4-13.7,34.8-24,55.3-30.4,7.9-2.5,15.9-4.5,24.1-5.6,12.2-1.6,24.4-2.3,36.6-1.2,9.6,.8,19,2.4,28.3,4.8,15.8,4.2,30.7,10.7,44.5,19.5,24.6,15.8,43.8,36.6,57.3,62.5,5.1,9.8,9.1,20,12,30.6,3.6,13.5,5.8,27.2,5.8,41.2v159.9c.2,.8,.2,1.4,.2,2.3Zm-75.1-75.6v-10.4c0-23.4-.1-46.9,0-70.3,0-11.2-1.4-22.2-5.1-32.8-6.2-17.6-17.2-31.6-32.6-42.2-12.1-8.3-25.4-13.1-40.1-14.3-12.6-1-24.9,.1-36.7,4.5-14.5,5.4-26.8,13.9-36.8,25.9-10.2,12.3-16.7,26.2-19,42-2,13.9-.8,27.6,4,40.9,4.8,13.4,12.4,25,22.9,34.6,16.3,14.8,35.6,22.3,57.7,22.4h83.4c.7-.1,1.4,0,2.3-.3Z"/>
    <path class="cls-1" d="M195.06,425.28c-.8,.6-1.6,.4-2.4,.5-8.2,.4-16.4-.3-24.5-1.7-19.7-3.5-38.3-10.2-55.8-19.8-18.9-10.3-35.5-23.5-50.3-39-16-16.7-28.9-35.5-39.1-56.2-5.3-10.6-9.7-21.6-13.1-33-3.3-10.8-6-21.8-7.5-33-2-14.4-3.1-29-1.8-43.6,.9-10.9,2.3-21.7,4.9-32.3,3.4-13.9,8.2-27.4,14.5-40.2,6.7-13.4,14.6-26.1,24-37.8,20.1-25,44.4-45,72.7-60,12.6-6.7,25.8-12.3,39.4-16.8,10.4-3.4,21.1-6.1,31.9-8.1C207.16,.78,226.36-.52,245.86,.18c11.7,.4,23.4,1.8,34.9,3.8,20.2,3.5,39.8,9.3,58.7,17.3,2.2,1,4.5,1.9,7,3-11,24.3-21.9,48.5-32.9,72.8-3.5-1.2-6.9-2.3-10.2-3.5-12.3-4.2-24.8-7-37.7-8.2-7.8-.8-15.6-1.2-23.4-1-6.4,.1-12.7,.9-19,1.7-15.4,1.9-30.2,6.2-44.5,12.1-13.8,5.7-26.6,13.1-38.4,22.1-22.7,17.2-40.1,38.7-52.2,64.5-4.8,10.3-8.4,21-11.2,32-2.4,9.3-3.5,18.7-4.4,28.2-.8,8.5-.8,17.1,.1,25.6,.6,6,1,12,2.2,17.9,5.2,27.1,16.2,51.7,33,73.6,14.4,18.8,31.6,34.5,51.8,47,10.8,6.7,22.1,12.2,34.2,16,.2-.2,.6,0,1.2,.2Z"/>
  </g>
</svg>